<?xml version="1.0" standalone="no"?>
<!DOCTYPE svg PUBLIC "-//W3C//DTD SVG 20010904//EN"
 "http://www.w3.org/TR/2001/REC-SVG-20010904/DTD/svg10.dtd">
<svg version="1.0" xmlns="http://www.w3.org/2000/svg"
 width="1057.000000pt" height="1280.000000pt" viewBox="0 0 1057.000000 1280.000000"
 preserveAspectRatio="xMidYMid meet">
<metadata>
Created by potrace 1.15, written by Peter Selinger 2001-2017
</metadata>
<g transform="translate(0.000000,1280.000000) scale(0.100000,-0.100000)"
fill="#fff" stroke="none">
<path d="M4080 12771 c-41 -15 -200 -87 -354 -160 -296 -140 -339 -159 -453
-197 -98 -32 -286 -125 -354 -176 -102 -76 -127 -133 -104 -242 20 -95 19
-116 -10 -221 -49 -178 -32 -228 105 -309 45 -27 127 -82 182 -123 173 -129
187 -135 300 -144 55 -4 130 -17 166 -29 243 -78 488 -254 522 -373 15 -56 8
-98 -32 -195 -57 -138 -140 -235 -184 -218 -25 10 -41 67 -49 171 -13 193 -57
238 -265 270 -179 28 -230 47 -400 148 -135 81 -312 220 -393 308 l-75 82
-169 -118 c-229 -161 -337 -248 -478 -386 l-119 -117 23 -153 c33 -228 78
-445 107 -513 49 -118 65 -173 100 -341 48 -235 56 -249 235 -426 82 -80 168
-159 191 -175 38 -27 48 -29 132 -28 79 0 107 6 211 41 66 22 199 77 295 121
271 123 341 142 523 143 135 0 249 -15 502 -66 398 -80 527 -161 652 -410 87
-172 195 -649 197 -870 2 -206 -44 -256 -414 -451 -102 -53 -237 -126 -300
-161 -147 -82 -202 -101 -344 -113 -179 -16 -236 -48 -236 -136 0 -34 6 -48
30 -73 37 -37 178 -117 376 -213 181 -88 212 -93 385 -54 178 40 272 34 347
-21 59 -44 48 -68 -104 -224 -154 -157 -162 -194 -74 -315 28 -38 50 -73 50
-79 0 -5 -24 -43 -54 -82 -83 -111 -86 -193 -8 -268 59 -59 100 -65 406 -65
165 -1 304 -6 356 -13 105 -16 154 -9 267 38 206 86 239 98 304 103 62 4 67 3
87 -23 27 -34 29 -92 5 -143 -10 -21 -74 -95 -143 -167 -172 -178 -235 -262
-375 -505 -102 -176 -187 -349 -213 -430 -12 -36 -35 -141 -52 -235 -52 -286
-77 -337 -170 -349 -108 -14 -116 1 -221 406 -120 466 -188 670 -289 867 -41
81 -64 112 -111 153 -79 70 -82 88 -30 193 49 100 50 97 -49 228 -38 51 -72
107 -76 123 -4 21 6 58 35 131 46 112 51 166 26 251 -20 66 -68 107 -177 152
-107 43 -252 115 -303 150 -115 79 -222 108 -282 76 -22 -11 -37 -30 -50 -63
-22 -57 -23 -187 -9 -918 11 -607 -5 -921 -53 -1031 -10 -22 -48 -80 -85 -128
-111 -146 -156 -255 -156 -381 0 -160 104 -273 290 -314 82 -19 129 -38 195
-83 120 -81 228 -196 277 -296 27 -54 30 -69 25 -114 -11 -86 -34 -103 -244
-177 -225 -79 -337 -143 -438 -252 -122 -133 -178 -347 -119 -460 15 -30 32
-39 76 -39 48 0 104 40 203 142 155 160 231 187 530 194 l200 5 -110 -58
c-124 -66 -213 -141 -244 -208 -40 -86 -16 -262 46 -336 l27 -31 85 7 c47 3
199 20 338 36 317 37 331 37 343 3 15 -39 12 -112 -7 -152 -9 -21 -95 -115
-190 -211 -185 -184 -275 -287 -367 -415 -79 -110 -74 -151 24 -201 101 -51
232 -77 506 -100 269 -23 380 -56 540 -159 119 -78 330 -290 556 -561 316
-378 397 -459 493 -492 40 -14 87 -17 235 -18 176 0 187 1 222 23 96 60 257
298 364 539 65 145 116 233 221 385 48 70 109 160 135 200 26 40 109 148 185
239 76 91 157 190 181 221 51 66 126 110 274 156 192 61 279 126 322 241 31
79 66 132 161 238 88 98 107 128 150 244 19 51 51 118 72 148 21 30 117 136
213 236 180 185 324 349 368 420 87 138 140 213 220 309 113 136 164 233 166
316 1 74 -23 111 -80 123 -73 16 -89 22 -92 41 -5 25 41 71 115 112 69 38 104
78 123 139 24 75 99 250 210 490 192 411 203 440 220 591 5 50 19 120 30 155
40 121 95 402 125 634 26 207 21 242 -53 357 -27 40 -54 89 -61 108 -16 42
-29 422 -31 835 -1 365 -12 543 -39 615 -39 103 -169 251 -299 339 -115 78
-230 125 -393 161 -213 48 -229 65 -502 535 -79 138 -156 273 -170 300 -57
113 -67 191 -87 684 l-11 253 -206 272 c-113 149 -245 318 -292 376 -120 148
-291 321 -390 395 -153 116 -409 222 -636 265 -280 53 -321 71 -495 216 -204
171 -244 191 -515 264 -268 71 -283 73 -570 66 -137 -4 -255 -3 -260 1 -6 4
-21 22 -33 39 -41 59 -202 130 -472 208 -168 49 -304 98 -556 199 -167 67
-284 107 -313 107 -9 -1 -50 -14 -91 -29z"/>
<path d="M1203 12060 c-76 -11 -109 -28 -155 -78 -84 -93 -188 -278 -188 -335
0 -37 38 -53 153 -60 48 -3 100 -13 115 -21 60 -33 81 -38 175 -45 l97 -6 -52
-42 c-67 -54 -100 -60 -209 -40 -171 33 -221 19 -324 -94 -64 -71 -107 -160
-139 -288 -26 -107 -46 -154 -120 -286 -31 -54 -52 -110 -66 -170 -12 -49 -33
-109 -46 -132 -14 -24 -76 -95 -139 -158 -130 -132 -189 -209 -239 -316 -61
-128 -79 -233 -55 -324 5 -22 11 -85 13 -140 3 -99 25 -207 68 -330 48 -140
78 -161 218 -151 105 6 120 1 120 -44 0 -89 79 -223 153 -259 52 -25 160 -29
211 -7 77 32 132 176 146 381 5 72 12 138 15 147 4 9 21 22 39 28 34 11 85 59
105 97 18 36 13 112 -20 264 -26 118 -32 166 -32 269 0 114 3 135 34 235 33
108 34 113 31 272 l-2 163 25 6 c50 12 59 -4 116 -220 22 -82 49 -167 60 -189
12 -22 76 -94 144 -161 67 -66 132 -140 144 -163 24 -48 46 -63 91 -63 37 0
65 13 103 49 67 61 82 148 74 418 -6 199 -15 261 -76 543 -24 111 -26 180 -6
270 25 113 15 231 -26 328 -27 63 -93 148 -129 167 -26 13 -35 13 -92 -4 -89
-27 -107 -30 -112 -22 -3 4 31 72 75 152 93 165 112 212 104 251 -9 40 -65 84
-122 96 -73 16 -210 22 -280 12z"/>
<path d="M2459 6696 c-101 -27 -191 -141 -218 -276 -9 -45 -9 -65 4 -105 26
-87 22 -99 -74 -242 -114 -169 -161 -293 -161 -424 0 -71 27 -170 64 -231 59
-99 146 -112 217 -31 42 49 61 94 99 238 36 136 60 189 92 206 18 10 24 8 39
-10 10 -12 21 -42 25 -68 8 -55 47 -102 115 -139 27 -15 52 -36 56 -48 3 -12
5 -54 4 -93 -3 -69 -1 -74 27 -103 43 -43 111 -42 194 2 108 58 268 226 268
282 0 27 28 73 88 145 70 84 78 108 57 173 -42 126 -210 464 -299 601 -46 71
-122 102 -309 127 -103 13 -231 12 -288 -4z"/>
<path d="M1387 6663 c-9 -2 -24 -17 -32 -33 -17 -33 -82 -113 -207 -254 -94
-107 -138 -180 -138 -232 0 -67 -30 -187 -71 -278 -35 -80 -41 -103 -37 -141
7 -61 58 -162 105 -209 43 -43 148 -95 242 -121 93 -25 144 -49 190 -90 55
-50 71 -105 80 -273 9 -165 15 -178 121 -284 146 -147 246 -157 281 -28 22 84
-7 145 -171 362 l-20 27 70 57 c39 31 75 65 80 75 23 43 7 169 -71 554 -58
287 -121 503 -196 675 -26 58 -57 120 -70 138 -39 52 -93 71 -156 55z"/>
</g>
</svg>
